<?xml version="1.0" encoding="utf-8"?>
<!-- Generator: Adobe Illustrator 27.2.0, SVG Export Plug-In . SVG Version: 6.00 Build 0)  -->
<svg version="1.1" id="Layer_2" xmlns="http://www.w3.org/2000/svg" xmlns:xlink="http://www.w3.org/1999/xlink" x="0px" y="0px"
	 viewBox="0 0 595.3 841.9" style="enable-background:new 0 0 595.3 841.9;" xml:space="preserve">
<style type="text/css">
	.st0{fill:#ED1C24;}
</style>
<path class="st0" d="M301.3,397.5c-1.3-1.9-3.7-2.8-7.2-2.8h-5.3v22.2h5.8c1.8,0,3.2-0.2,4.3-0.7c1.1-0.5,1.9-1.2,2.5-2.1
	c0.5-0.9,0.9-2.1,1.1-3.4c0.2-1.4,0.3-2.9,0.3-4.7s-0.1-3.4-0.3-4.7C302.3,399.7,301.9,398.5,301.3,397.5z"/>
<g>
	<polygon class="st0" points="367.8,431.4 372,423.7 380.6,447.4 388.7,447.4 376.4,415.4 386.8,394 379.1,394 368,418.4 
		367.8,418.4 367.8,394 360.2,394 360.2,447.4 367.8,447.4 	"/>
	<path class="st0" d="M396.8,377.2H197.3c-4.4,0-8,3.6-8,8v71.1c0,4.4,3.6,8,8,8h199.5c4.4,0,8-3.6,8-8v-71.1
		C404.7,380.8,401.2,377.2,396.8,377.2z M230.2,456.3H220v-31.7h-12.6v31.7h-10.2v-71.1h10.2v30.5H220v-30.5h10.2V456.3z
		 M263.3,456.3l-8.9-24l-8.8,24h-10.8l14.4-37.2l-13.3-33.8h10.8l7.7,21.1l7.8-21.1H273L259.4,419l14.7,37.2H263.3z M304.4,456.3
		l-9.5-30.4h-6.1v30.4h-10.2v-71.1H295c12,0,18,7,18,20.9c0,4.2-0.6,7.8-1.9,10.7c-1.3,2.9-3.6,5.3-6.8,7.1l11,32.4H304.4z
		 M396.8,456.3h-75.2l-10.2-30.1c2.3-2,4-4.3,5.2-7c1.6-3.7,2.5-8.1,2.5-13.1c0-10.4-3-16.9-7.1-20.9h84.9V456.3z"/>
	<path class="st0" d="M349.4,443.8c2.4-2.4,3.6-6.1,3.6-11v-24.9c0-4.4-1.1-7.8-3.4-10.2c-2.3-2.4-5.6-3.6-10-3.6h-11.3v53.3h10.6
		C343.5,447.4,347,446.2,349.4,443.8z M335.9,401.2h3.5c2.2,0,3.8,0.6,4.6,1.7c0.8,1.1,1.3,2.8,1.3,4.9v25.7c0,2.3-0.4,4-1.3,5.1
		c-0.9,1.1-2.4,1.6-4.6,1.6h-3.5V401.2z"/>
</g>
</svg>
